<svg xmlns="http://www.w3.org/2000/svg" width="375" height="204" fill="none"><defs><style>.cls-2{fill:#7e3362;mix-blend-mode:multiply;opacity:.2}.cls-3{fill:#004855}.cls-4{fill:#fff}.cls-5{fill:#004854}.cls-6{fill:none;stroke:#fff;stroke-linecap:round;stroke-miterlimit:10;stroke-width:.6px}.cls-7{fill:#e7b3a2}.cls-9{fill:#00d2ff}.cls-10{opacity:.4}.cls-11{fill:#aab8c1}</style></defs><g style="isolation:isolate"><g id="_202109_Product_Empty_State_Payment_History_375x204" data-name="202109_Product_Empty_State_Payment_History_375x204"><ellipse cx="223.21" cy="174" class="cls-2" rx="32.6" ry="2.36"/><path d="m238.47 113.91-2.07-.09.6-14.38a1.76 1.76 0 0 0-.47-1.31 1.81 1.81 0 0 0-1.28-.59l-9.61-.35A1.87 1.87 0 0 0 223.7 99l-.59 14.41-2.08-.09.6-14.41a3.93 3.93 0 0 1 4.07-3.74l9.62.34a3.89 3.89 0 0 1 3.75 4.08Z" class="cls-3"/><path d="M251.12 158.88a9.1 9.1 0 0 1-9.38 8.64l-29.16-1.08a8.86 8.86 0 0 1-8.55-9.28l2.17-45.33a9.06 9.06 0 0 1 9.37-8.62l29.18 1.06a8.88 8.88 0 0 1 8.54 9.27Z" class="cls-3"/><path d="M215.55 174.47h-.19a3.82 3.82 0 1 1 4-3.64 3.84 3.84 0 0 1-3.81 3.64Zm0-4.47a.65.65 0 0 0 0 1.29.64.64 0 0 0 .67-.61.65.65 0 0 0-.61-.68ZM243 175.8h-.19a3.82 3.82 0 0 1 .37-7.64 3.82 3.82 0 0 1-.18 7.64Zm0-4.46a.64.64 0 0 0-.64.61.62.62 0 0 0 .17.46.61.61 0 0 0 .44.21.64.64 0 0 0 .68-.61.62.62 0 0 0-.17-.46.59.59 0 0 0-.45-.21Z" class="cls-3"/><path d="m206.413 111.484 47.068-.41.014 1.59-47.068.41z" class="cls-4"/><path d="m223.282 98.332.11-2.377 14.205.657-.11 2.378z" class="cls-3"/><path d="M204 157a8.85 8.85 0 0 0 8.55 9.27l29.16 1.09a9.1 9.1 0 0 0 9.38-8.65l.12-5.2-46.73-6.2Z" class="cls-2"/><ellipse cx="144.83" cy="174" class="cls-2" rx="41.87" ry="2.36"/><path d="M137.54 166c.21-.44 15.36-17.11 18.48-20.65.28-.33.55-.63.79-.89l1.44-1.64s6.46 4.72 5.89 5.89-2.95 5.67-4.45 7.19c-6.25 6.3-8.83 5.89-17.05 13.08Z" class="cls-5"/><path d="M157.39 148.7a4.31 4.31 0 0 1-.69-3.42 3.9 3.9 0 0 1 .3-.87 4.26 4.26 0 0 1 1.41-1.7 4.16 4.16 0 0 1 1.9-.73 4.28 4.28 0 0 1 4.09 1.76 4.32 4.32 0 0 1 .59 3.78 4.21 4.21 0 0 1-1.58 2.18 4.2 4.2 0 0 1-2.33.78 4.26 4.26 0 0 1-3.69-1.78Z" class="cls-5"/><path d="M176.4 173c-3.78-3.29-5.81-3.08-10.29-12.35-2.51-5.21-7.88-11.07-7.88-11.07l4-3.94.46-.54 1.4-1.61.1-.11a36.37 36.37 0 0 0 3.57 3.17c7.16 5.76 16 17.51 16 17.51a102.43 102.43 0 0 0-7.36 8.94Z" class="cls-5"/><path d="M167.79 146.56a36.37 36.37 0 0 1-3.57-3.17l-.07.08a4.29 4.29 0 0 0-3.84-1.49 4.16 4.16 0 0 0-1.9.73 1.42 1.42 0 0 1-.13.12l-.23.26a4.85 4.85 0 0 0-.64.73l-.57.65c-.24.26-.51.56-.79.89-3.12 3.54-18.27 20.21-18.48 20.65l5.1 3c8.22-7.19 10.8-6.78 17.05-13.08a16 16 0 0 0 1.78-2.41 43.72 43.72 0 0 1 4.64 7.18c4.48 9.27 6.51 9.06 10.29 12.35a102.43 102.43 0 0 1 7.39-8.94s-8.82-11.79-16.03-17.55Z" class="cls-2"/><path d="M138 165.83c.87 0 1.15.6.42 1.47a1 1 0 0 0 .07 1.55c1.53 1.59 2.38 1 2.38 1s-1.55 3.53-3.13 2.67c-.68-.37-2.68-1.67-4.51-3-2-1.49-4.12-2.68-3.36-3.82.33-.52 2.58.25 4.84.27.98.03 2.64-.14 3.29-.14Z" class="cls-5"/><path d="m137.27 165.8.29 1.58M136.16 165.84l.24 1.48M135.05 165.87l.2 1.4M133.94 165.91l.15 1.31" class="cls-6"/><path d="M116.51 167.3c.44-.2 22.73-3.47 27.39-4.22l1.18-.18 2.15-.35s2 7.74.8 8.29a74.66 74.66 0 0 1-10.55 2.32c-8.83.9-9.83 1.44-18.93-.31Z" class="cls-5"/><path d="M142.82 166.55a4.28 4.28 0 0 1 1.64-3.08 4.86 4.86 0 0 1 .78-.49 4.41 4.41 0 0 1 2.17-.41 4.17 4.17 0 0 1 1.93.64 4.27 4.27 0 0 1 .1 7.25 4.23 4.23 0 0 1-2.6.69h-.05a4.28 4.28 0 0 1-4-4.59Z" class="cls-5"/><path d="M183.49 172.31c-4.92.95-11.59 1.47-21.65-.72-5.65-1.23-13.43-.64-13.43-.64l-.77-5.58-.13-.69-.91-2.09s2-.28 5.18-1c8.95-2.09 28.39-1.8 28.39-1.8 0 .85 7.34 6.42 8.32 9.81.37 1.24-4.33 2.45-5 2.71ZM114.33 167.31c.78.37.79 1-.24 1.51a1 1 0 0 0-.59 1.44c.72 2.08 1.76 1.87 1.76 1.87s-2.89 2.56-4 1.12c-.47-.63-1.74-2.65-2.84-4.61-1.25-2.21-2.62-4.16-1.46-4.88.52-.33 2.24 1.31 4.28 2.28.93.42 2.5.96 3.09 1.27Z" class="cls-5"/><path d="m113.68 166.98-.41 1.55M112.66 166.54l-.41 1.45M111.63 166.11l-.41 1.35M110.61 165.68l-.41 1.25" class="cls-6"/><path d="M202.18 138.1a3.42 3.42 0 0 1-2.34 3.57c-1.49.65-3.37 1.14-3.46.92s-.29-.45-.38-.74l-1.71-4.41-.09-.25-.53-7 6.63 1s.56 2.58 1.88 6.91Z" class="cls-7"/><path d="M196.47 142.81a2.16 2.16 0 0 1-.38-.74l-1.71-4.42 3.08-1.7s1.83 5.73-.99 6.86Z" class="cls-2"/><path d="M189.53 133a7 7 0 0 0 .3 1.25c.52 1.82.55 3.08 1.22 3.36l1.15.45a12.06 12.06 0 0 0 5.9-1.7l3.26-.45c-2.36-4.93-1.78-4.93-4.82-10.13-1.54-2.65-3.87-3.27-5.53-2.59a4.79 4.79 0 0 0-3.09 4.5l.07 5Z" class="cls-7"/><path d="M189.74 133.93c.07.22.14.5.15.53.38-.07 1.83-.62 1.8-.91 0-.03-1.32.25-1.95.38Z" class="cls-4"/><path fill="#004856" d="M189.75 130s.95.71 1.64 0a.59.59 0 0 0 .07-.38 1.68 1.68 0 0 1-.85.34c-.47.09-.76-.25-.86.04Z"/><path d="M194.05 125.27s3.85 7.64 5.58 7.58 1.29-1.85 1.29-1.85-2-5.12-2.7-6.65c-.95-2.19-2.79-3-6.52-2.52-3.95.5-6.32 1-5.85 3.11.31 1.39 2.3 2.69 8.2.33Z"/><path d="m187.92 129.41 9.16-7.06 1.4 2.61-2.54 2.32c-3.66 2.56-4.39 4.66-6.41 5.76l-1.54-.35Z" class="cls-2"/><path d="M183 154c-1 .45-4.65.15-5 .36a6.14 6.14 0 0 0-3.14 3.87c-.15.6 1 2.49 1.52 2.69a6.22 6.22 0 0 0 3.22-1.21 1 1 0 0 0 .25-1.36c-.25-.37-.57-1.27-.35-1.36s1.19.15 1.69.11a2.66 2.66 0 0 0 1.64-1.41A6.77 6.77 0 0 0 183 154Z" class="cls-7"/><path d="M204.25 140.88c-1.71-.43-9.74-.48-10.32.16s-8.71 7.7-10.21 9.52a31 31 0 0 0-3.37 5.13 12 12 0 0 1-3 3.64c-.54.21-.54 2.49-.4 2.92a8.79 8.79 0 0 0 2.33 3.74c1.6 1.34 3.52 2.39 5.07 4l1.71 2.06c2.65-1.4 9.63-10.39 10.75-11.4s7.35-9.81 8-12.14a13.56 13.56 0 0 0-.56-7.63Z" class="cls-9"/><path d="m181.72 160.94 12.72 2.48-3.11 3.58-5.05.38c-4.53 0-7.28-3.28-10.05-3.53-4.4-.4-8.57 3.09-8.34 2.73 1.16-1.78 2.67-4.28 2.67-4.28Z" class="cls-2"/><path d="M202.11 137a8.62 8.62 0 0 1-2.4.8c-1.71.27-4.82.43-4.82.43l-.91 3.42a21.29 21.29 0 0 1 5.35-1.07 19.68 19.68 0 0 1 3.67.42 9.24 9.24 0 0 1 0-1c0-.67-.52-1.05-.63-1.64Z" class="cls-4"/><path d="M202 146.46c-1-1.2-3.68-2.19-5-.74a32 32 0 0 0-4.28 6.36c-.64 1.5-2.64 5.32-2.85 6.12s-2.59 2.38-2.59 2.38l7.2 2.84a16.67 16.67 0 0 0 6.15-5.51c2.57-4.28 3.92-8.5 1.37-11.45Z" class="cls-2"/><path d="M192 159.76a38.09 38.09 0 0 0-7-.43c-3.53.21-7.64 0-7.64 0l-.86 2.51s1.93.81 3.58 1.58a25.61 25.61 0 0 0 7.54 1.79c2 0 5.46 0 6.36-1.24s-1.98-4.21-1.98-4.21Z" class="cls-7"/><path d="M176.93 159.28a14.94 14.94 0 0 0-4.49.41 7.41 7.41 0 0 0-4 4.15c-.5 1.36-.83 2.41-.55 2.74s.84-.36 1.12-1a4.58 4.58 0 0 1 2.19-2.79 6.74 6.74 0 0 1 2.72-.58 27.16 27.16 0 0 0 3.11-.53l.33-2.39Z" class="cls-7"/><path d="M203.5 145c-1.05-1.21-3.69-2.2-5-.75a32.26 32.26 0 0 0-4.28 6.36c-.64 1.5-1.66 4.76-1.87 5.56s-.75 2.94-.75 2.94l2.86 4.36s5.49-3.46 7.67-7c2.59-4.36 3.94-8.58 1.37-11.47Z" class="cls-9"/><path d="M191.36 157.55c-.26.19-.14 1-.35 1.24s-.71.25-1 .72-.28 1.57.36 1.74a3.25 3.25 0 0 1 2.1 1.29c.57.89.82 1.78 1.35 2.06s1.43-.25 1.86-.35 1.24.32 1.57 0c.6-.53-.36-2.67-1.82-4s-3.43-3.17-4.07-2.7Z" class="cls-4"/><path d="m178.63 117.93.1 1.15-4.29.38-.09-1.06 2.27-2.94-2.37.21-.1-1.15 4-.35.09 1-2.29 3ZM173.5 116.16l-.61 1.55-5.77-2.28.56-1.42 4.81-2.33-3.18-1.25.61-1.55 5.34 2.1-.56 1.41-4.85 2.33ZM168 110.43l.08 2.15-8 .32-.08-2 4.49-5.28-4.43.17-.09-2.15 7.43-.3.08 2-4.53 5.3Z" class="cls-5"/><path d="M191.79 118.26c-1.71-1.21-3.78-1-3.78 1.69-1.63-1.29-4.34-.63-3.47 3 .58 2.43 2.4 5.71 2.69 7.58l10.35-7.58c-1.26-1.15-4.31-3.64-5.79-4.69Z" class="cls-3"/><path d="M201.09 119.64a1.32 1.32 0 0 1-.26 1.85l-14.77 11.1a1.32 1.32 0 0 1-1.85-.27 1.31 1.31 0 0 1 .26-1.84l14.78-11.1a1.31 1.31 0 0 1 1.84.26Z" class="cls-3"/><g class="cls-10"><path d="M146.09 61.7c.18 2.07 25.66 1.17 25.66 1.17s-1.75-7-8.28-5.56c0 0-8.92-6.45-12.42.94 0-.04-5.37-.82-4.96 3.45ZM221.16 29.16c.3 5.24 43.52 3 43.52 3s-3-17.81-14-14.05c0 0-15.14-16.32-21.07 2.37-.04-.13-9.14-2.1-8.45 8.68Z" class="cls-11"/></g><ellipse cx="121.12" cy="161.58" class="cls-2" rx="13.87" ry=".76"/><g class="cls-10"><path d="M120.47 117.39h1.22a3.24 3.24 0 0 1 3.24 3.24v40.6h-7.7v-40.6a3.24 3.24 0 0 1 3.24-3.24Z" class="cls-11"/><path d="M134.4 142.07v4.94h-9.48v-4.94zM117.22 135.1v4.94h-9.23v-4.94zM132 132.2a2.42 2.42 0 0 1 2.42 2.42v7.45h-4.84v-7.45a2.42 2.42 0 0 1 2.42-2.42ZM110.41 125.22a2.42 2.42 0 0 1 2.42 2.42v7.45H108v-7.45a2.42 2.42 0 0 1 2.41-2.42Z" class="cls-11"/></g><ellipse cx="262.31" cy="158.22" class="cls-2" rx="7.48" ry=".41"/><g class="cls-10"><path d="M262 134.4h.66a1.75 1.75 0 0 1 1.75 1.75V158h-4.15v-21.85a1.75 1.75 0 0 1 1.74-1.75Z" class="cls-11"/><path d="M269.47 144.33v2.66h-5.11v-2.66zM260.21 147.33v2.66h-4.98v-2.66zM268.17 139a1.3 1.3 0 0 1 1.3 1.3v4h-2.61v-4a1.3 1.3 0 0 1 1.3-1.3ZM256.54 142a1.3 1.3 0 0 1 1.3 1.3v4h-2.61v-4a1.3 1.3 0 0 1 1.31-1.3Z" class="cls-11"/></g></g></g></svg>
